<svg width="793" height="31" viewBox="0 0 793 31" fill="none" xmlns="http://www.w3.org/2000/svg">
<path d="M0.609375 5.42188C0.609375 5.00781 0.810547 4.61523 1.21289 4.24414C1.61914 3.86914 2.1543 3.68164 2.81836 3.68164C3.10742 3.68164 3.37695 3.71094 3.62695 3.76953C3.88086 3.82812 4.12305 3.92188 4.35352 4.05078C4.58789 4.17969 4.76953 4.37305 4.89844 4.63086C5.03125 4.88477 5.09766 5.1875 5.09766 5.53906C5.09766 5.94531 4.95703 6.33984 4.67578 6.72266C4.39844 7.10156 3.94727 7.5957 3.32227 8.20508C3.2832 8.24414 3.15039 8.37109 2.92383 8.58594C2.70117 8.79688 2.52734 8.9668 2.40234 9.0957C2.28125 9.2207 2.1582 9.37695 2.0332 9.56445C1.9082 9.75195 1.8457 9.91406 1.8457 10.0508H3.79102C4.01367 10.0508 4.18164 9.98438 4.29492 9.85156C4.4082 9.71484 4.52148 9.44141 4.63477 9.03125L5.15039 9.14258C5.05273 9.58398 4.96484 10.2031 4.88672 11H0.597656C0.597656 10.6328 0.691406 10.2754 0.878906 9.92773C1.07031 9.58008 1.45312 9.09766 2.02734 8.48047L2.89453 7.56641C3.19141 7.24609 3.39453 6.93945 3.50391 6.64648C3.61719 6.34961 3.67383 5.99609 3.67383 5.58594C3.67383 5.09766 3.57031 4.73828 3.36328 4.50781C3.16016 4.27734 2.95117 4.16211 2.73633 4.16211C2.43945 4.16211 2.19141 4.24023 1.99219 4.39648C1.79297 4.55273 1.69336 4.70898 1.69336 4.86523C1.69336 5.00195 1.70898 5.10742 1.74023 5.18164C1.76367 5.24414 1.77539 5.32812 1.77539 5.43359C1.77539 5.60156 1.7168 5.72852 1.59961 5.81445C1.48633 5.89648 1.35352 5.9375 1.20117 5.9375C1.04102 5.9375 0.902344 5.88867 0.785156 5.79102C0.667969 5.68945 0.609375 5.56641 0.609375 5.42188ZM8.36719 10.0273V5.83789C8.36719 5.64648 8.35938 5.50391 8.34375 5.41016C8.32812 5.3125 8.30469 5.25391 8.27344 5.23438C8.24609 5.21484 8.20898 5.20508 8.16211 5.20508C8.08398 5.20508 7.9082 5.25195 7.63477 5.3457C7.36133 5.43555 7.10156 5.54492 6.85547 5.67383L6.63867 5.27539C6.98242 5.10742 7.44922 4.8457 8.03906 4.49023C8.63281 4.13477 8.97461 3.93359 9.06445 3.88672C9.29492 3.75 9.46094 3.68164 9.5625 3.68164C9.66797 3.68164 9.7207 3.75 9.7207 3.88672C9.69727 4.39062 9.68555 4.85352 9.68555 5.27539V10.0273C9.68555 10.082 9.68945 10.1328 9.69727 10.1797C9.70508 10.2227 9.71484 10.2617 9.72656 10.2969C9.73828 10.332 9.75781 10.3652 9.78516 10.3965C9.81641 10.4238 9.83984 10.4473 9.85547 10.4668C9.87109 10.4863 9.90234 10.5039 9.94922 10.5195C10 10.5352 10.0352 10.5469 10.0547 10.5547C10.0742 10.5625 10.1172 10.5703 10.1836 10.5781C10.2539 10.5859 10.3008 10.5898 10.3242 10.5898C10.3477 10.5898 10.3984 10.5938 10.4766 10.6016C10.5586 10.6094 10.6152 10.6133 10.6465 10.6133C10.6855 10.6445 10.7051 10.7129 10.7051 10.8184C10.7051 10.9238 10.6855 10.9922 10.6465 11.0234C10.1348 11.0078 9.59961 11 9.04102 11C8.29883 11 7.66992 11.0078 7.1543 11.0234C7.12305 10.9922 7.10742 10.9258 7.10742 10.8242C7.10742 10.7188 7.12305 10.6484 7.1543 10.6133C7.66992 10.5781 7.99805 10.5176 8.13867 10.4316C8.29102 10.3418 8.36719 10.207 8.36719 10.0273ZM15.5566 8.76758C15.5566 8.20117 15.4395 7.74414 15.2051 7.39648C14.9746 7.04492 14.7051 6.86914 14.3965 6.86914C13.9473 6.86914 13.4023 7.00586 12.7617 7.2793L13.1836 3.7168C13.7578 3.76367 14.2539 3.78711 14.6719 3.78711C15.2227 3.78711 15.8457 3.74805 16.541 3.66992L16.7695 3.78711L16.5879 4.61328C15.9707 4.66016 15.5273 4.68555 15.2578 4.68945C14.5703 4.68945 14.0469 4.66992 13.6875 4.63086C13.6719 4.81445 13.6523 4.99219 13.6289 5.16406C13.6094 5.33594 13.5859 5.5293 13.5586 5.74414C13.5312 5.95898 13.5098 6.13867 13.4941 6.2832C13.7988 6.2207 14.1992 6.18945 14.6953 6.18945C15.3906 6.18945 15.9375 6.41797 16.3359 6.875C16.7383 7.32812 16.9395 7.87109 16.9395 8.50391C16.9395 9.22266 16.6875 9.8457 16.1836 10.373C15.6797 10.8965 15.0508 11.1582 14.2969 11.1582C13.8633 11.1582 13.4238 11.0625 12.9785 10.8711C12.5371 10.6758 12.3164 10.459 12.3164 10.2207C12.3164 10.084 12.3672 9.9668 12.4688 9.86914C12.5742 9.76758 12.7168 9.7168 12.8965 9.7168C13.2012 9.7168 13.4277 9.86914 13.5762 10.1738C13.6465 10.3105 13.75 10.4219 13.8867 10.5078C14.0234 10.5898 14.1445 10.6309 14.25 10.6309C14.5859 10.6309 14.8867 10.459 15.1523 10.1152C15.4219 9.76758 15.5566 9.31836 15.5566 8.76758ZM23.1094 6.42969H23.1328C23.6992 5.92578 24.2598 5.67383 24.8145 5.67383C25.4395 5.67383 25.8516 5.9375 26.0508 6.46484C26.6602 5.9375 27.2754 5.67383 27.8965 5.67383C28.2012 5.67383 28.4492 5.72266 28.6406 5.82031C28.832 5.91406 28.9707 6.06055 29.0566 6.25977C29.1465 6.45898 29.2051 6.66016 29.2324 6.86328C29.2637 7.0625 29.2793 7.31836 29.2793 7.63086V10.0859C29.2793 10.2383 29.3223 10.3477 29.4082 10.4141C29.498 10.4766 29.6504 10.5352 29.8652 10.5898L29.959 10.6133C30.0215 10.6289 30.0547 10.666 30.0586 10.7246V11L30.0352 11.0234C29.3867 11.0078 28.9062 11 28.5938 11L27.3105 11.0234L27.2871 11V10.7246C27.2871 10.6621 27.3184 10.625 27.3809 10.6133C27.7637 10.582 27.9551 10.4062 27.9551 10.0859V7.36133C27.9551 6.67383 27.7949 6.33008 27.4746 6.33008C27.0684 6.33008 26.6328 6.52734 26.168 6.92188C26.1836 7.12891 26.1914 7.35938 26.1914 7.61328V10.0859C26.1914 10.2773 26.2422 10.4082 26.3438 10.4785C26.4492 10.5449 26.5957 10.5898 26.7832 10.6133C26.8457 10.6133 26.877 10.6504 26.877 10.7246V11L26.8535 11.0234C26.2793 11.0078 25.834 11 25.5176 11L24.2227 11.0234L24.1992 11V10.7246C24.1992 10.666 24.2363 10.6289 24.3105 10.6133C24.6855 10.582 24.873 10.4062 24.873 10.0859V7.39062C24.873 6.6875 24.709 6.33398 24.3809 6.33008C24.0137 6.33008 23.5977 6.52344 23.1328 6.91016V10.0977C23.1328 10.2266 23.1641 10.332 23.2266 10.4141C23.293 10.4922 23.3594 10.541 23.4258 10.5605C23.4961 10.5801 23.5898 10.5977 23.707 10.6133C23.7773 10.6289 23.8145 10.666 23.8184 10.7246V11L23.7949 11.0234C23.2207 11.0078 22.7715 11 22.4473 11L21.0586 11.0234L21.0352 11V10.7246C21.0352 10.6699 21.0664 10.6328 21.1289 10.6133L21.2344 10.5898C21.4492 10.543 21.5996 10.4902 21.6855 10.4316C21.7715 10.3691 21.8145 10.2578 21.8145 10.0977V7.15039C21.8145 6.86914 21.793 6.68555 21.75 6.59961C21.7109 6.50977 21.6445 6.46094 21.5508 6.45312L21.0586 6.40625L21.0352 5.99609C22.0117 5.86719 22.6836 5.74805 23.0508 5.63867C23.1055 5.63867 23.1328 5.65039 23.1328 5.67383L23.1094 6.42969ZM32.4668 10.3262C32.6426 10.5254 32.8418 10.627 33.0645 10.6309C33.5293 10.6309 33.8828 10.4258 34.125 10.0156C34.3711 9.60156 34.4941 9.04883 34.4941 8.35742C34.4941 7.77148 34.3828 7.2793 34.1602 6.88086C33.9414 6.48242 33.6855 6.2832 33.3926 6.2832C33.1621 6.2832 32.8535 6.4082 32.4668 6.6582V10.3262ZM31.1484 4.24414C31.1484 3.87695 31.1211 3.63867 31.0664 3.5293C31.0156 3.41992 30.9219 3.36523 30.7852 3.36523L30.4043 3.3418C30.3574 3.3418 30.332 3.32227 30.3281 3.2832L30.293 2.9375C30.5898 2.91406 30.9648 2.87109 31.418 2.80859C31.875 2.74219 32.1719 2.67969 32.3086 2.62109C32.4375 2.62109 32.502 2.66211 32.502 2.74414C32.4785 3.06445 32.4668 3.48437 32.4668 4.00391V6.17773C32.9316 5.8418 33.3398 5.67383 33.6914 5.67383C34.3008 5.67383 34.8164 5.89648 35.2383 6.3418C35.6602 6.7832 35.8711 7.36328 35.8711 8.08203C35.8711 8.99219 35.5918 9.72656 35.0332 10.2852C34.4746 10.8398 33.8379 11.1172 33.123 11.1172C32.627 11.1172 32.207 10.918 31.8633 10.5195L31.5059 11.1582L31.0957 11.082C31.127 10.8242 31.1445 10.5 31.1484 10.1094V4.24414ZM42.3164 6.16602C41.957 6.16602 41.6777 6.375 41.4785 6.79297C41.2832 7.20703 41.1855 7.69336 41.1855 8.25195C41.1855 8.58008 41.2344 8.91602 41.332 9.25977C41.4297 9.60352 41.5918 9.91406 41.8184 10.1914C42.0449 10.4648 42.3105 10.6016 42.6152 10.6016C42.8965 10.6016 43.1445 10.4707 43.3594 10.209C43.5742 9.94336 43.6816 9.4707 43.6816 8.79102C43.6816 7.95117 43.5566 7.30469 43.3066 6.85156C43.0605 6.39453 42.7305 6.16602 42.3164 6.16602ZM39.7266 8.51562C39.7266 7.66797 39.9648 6.98242 40.4414 6.45898C40.9219 5.93555 41.5859 5.67383 42.4336 5.67383C42.8984 5.67383 43.3125 5.75586 43.6758 5.91992C44.043 6.08398 44.3281 6.30273 44.5312 6.57617C44.7344 6.8457 44.8848 7.13672 44.9824 7.44922C45.084 7.76172 45.1348 8.08203 45.1348 8.41016C45.1348 8.72266 45.0781 9.03516 44.9648 9.34766C44.8555 9.65625 44.6934 9.94531 44.4785 10.2148C44.2676 10.4805 43.9844 10.6973 43.6289 10.8652C43.2734 11.0332 42.8711 11.1172 42.4219 11.1172C41.5898 11.1172 40.9316 10.8516 40.4473 10.3203C39.9668 9.78906 39.7266 9.1875 39.7266 8.51562ZM46.7285 10.0977V6.35352H46.1777C45.9629 6.35352 45.8535 6.31445 45.8496 6.23633V6.06641C45.8496 6.00391 45.8906 5.94336 45.9727 5.88477C46.0586 5.82227 46.1934 5.79102 46.377 5.79102H46.7285V5.67383C46.7285 4.72852 46.9492 3.98438 47.3906 3.44141C47.8359 2.89453 48.3633 2.62109 48.9727 2.62109C49.2695 2.62109 49.5332 2.6582 49.7637 2.73242C49.9941 2.80273 50.168 2.89062 50.2852 2.99609C50.4023 3.10156 50.4902 3.19922 50.5488 3.28906C50.6074 3.375 50.6367 3.44922 50.6367 3.51172C50.6367 3.67187 50.5859 3.8125 50.4844 3.93359C50.3867 4.05078 50.2539 4.10938 50.0859 4.10938C49.7812 4.10938 49.5371 3.95117 49.3535 3.63477C49.1777 3.29883 48.9746 3.13086 48.7441 3.13086C48.2793 3.13086 48.0469 3.81445 48.0469 5.18164V5.79102H49.2012C49.3613 5.79102 49.4414 5.83203 49.4414 5.91406V6.1543C49.4414 6.29102 49.3008 6.35742 49.0195 6.35352H48.0469V10.0625C48.0469 10.3672 48.2637 10.543 48.6973 10.5898L48.9082 10.6133C48.9707 10.6289 49.0039 10.666 49.0078 10.7246V11L48.9844 11.0234C48.2148 11.0078 47.6738 11 47.3613 11L45.9082 11.0234L45.8848 11V10.7246C45.8848 10.6699 45.918 10.6328 45.9844 10.6133L46.1484 10.5898C46.3555 10.5586 46.5039 10.5098 46.5938 10.4434C46.6836 10.373 46.7285 10.2578 46.7285 10.0977ZM55.0547 10.0273V5.83789C55.0547 5.64648 55.0469 5.50391 55.0312 5.41016C55.0156 5.3125 54.9922 5.25391 54.9609 5.23438C54.9336 5.21484 54.8965 5.20508 54.8496 5.20508C54.7715 5.20508 54.5957 5.25195 54.3223 5.3457C54.0488 5.43555 53.7891 5.54492 53.543 5.67383L53.3262 5.27539C53.6699 5.10742 54.1367 4.8457 54.7266 4.49023C55.3203 4.13477 55.6621 3.93359 55.752 3.88672C55.9824 3.75 56.1484 3.68164 56.25 3.68164C56.3555 3.68164 56.4082 3.75 56.4082 3.88672C56.3848 4.39062 56.373 4.85352 56.373 5.27539V10.0273C56.373 10.082 56.377 10.1328 56.3848 10.1797C56.3926 10.2227 56.4023 10.2617 56.4141 10.2969C56.4258 10.332 56.4453 10.3652 56.4727 10.3965C56.5039 10.4238 56.5273 10.4473 56.543 10.4668C56.5586 10.4863 56.5898 10.5039 56.6367 10.5195C56.6875 10.5352 56.7227 10.5469 56.7422 10.5547C56.7617 10.5625 56.8047 10.5703 56.8711 10.5781C56.9414 10.5859 56.9883 10.5898 57.0117 10.5898C57.0352 10.5898 57.0859 10.5938 57.1641 10.6016C57.2461 10.6094 57.3027 10.6133 57.334 10.6133C57.373 10.6445 57.3926 10.7129 57.3926 10.8184C57.3926 10.9238 57.373 10.9922 57.334 11.0234C56.8223 11.0078 56.2871 11 55.7285 11C54.9863 11 54.3574 11.0078 53.8418 11.0234C53.8105 10.9922 53.7949 10.9258 53.7949 10.8242C53.7949 10.7188 53.8105 10.6484 53.8418 10.6133C54.3574 10.5781 54.6855 10.5176 54.8262 10.4316C54.9785 10.3418 55.0547 10.207 55.0547 10.0273ZM59.4434 10.9297C59.3105 10.8008 59.2441 10.6445 59.2441 10.4609C59.2441 10.2773 59.3105 10.1191 59.4434 9.98633C59.5762 9.85352 59.7344 9.78711 59.918 9.78711C60.1016 9.78711 60.2598 9.85352 60.3926 9.98633C60.5254 10.1191 60.5918 10.2773 60.5918 10.4609C60.5918 10.6445 60.5254 10.8008 60.3926 10.9297C60.2598 11.0547 60.1016 11.1172 59.918 11.1172C59.7344 11.1172 59.5762 11.0547 59.4434 10.9297ZM62.918 3.86914H66.627L66.6738 3.96875C66.5137 4.36719 66.2832 4.94336 65.9824 5.69727C65.6855 6.44727 65.4727 6.98438 65.3438 7.30859C65.2148 7.63281 65.0527 8.04492 64.8574 8.54492C64.6621 9.04492 64.498 9.48633 64.3652 9.86914C64.2324 10.248 64.1016 10.6328 63.9727 11.0234L62.8477 11.1582L62.7891 11C62.8672 10.8242 63.293 9.90234 64.0664 8.23438C64.8438 6.56641 65.3574 5.41992 65.6074 4.79492H63.293C63.0781 4.79492 62.916 4.8457 62.8066 4.94727C62.6973 5.04492 62.5996 5.28711 62.5137 5.67383L62.0449 5.57422C62.2363 4.74219 62.3398 4.15039 62.3555 3.79883H62.4492C62.5156 3.8457 62.6719 3.86914 62.918 3.86914ZM74.0098 7.58984C74.0098 7.125 73.9238 6.75977 73.752 6.49414C73.5801 6.22461 73.3496 6.08984 73.0605 6.08984C72.8145 6.08984 72.6152 6.20117 72.4629 6.42383C72.3105 6.64258 72.2344 6.96484 72.2344 7.39062C72.2344 7.77344 72.3145 8.12695 72.4746 8.45117C72.6348 8.77539 72.8828 8.9375 73.2188 8.9375C73.7461 8.93359 74.0098 8.48438 74.0098 7.58984ZM72.4629 11.1816C72.2793 11.1816 72.1465 11.166 72.0645 11.1348C71.8887 11.3184 71.8008 11.6582 71.8008 12.1543C71.8008 12.5293 71.9473 12.8223 72.2402 13.0332C72.5332 13.2441 72.7988 13.3496 73.0371 13.3496C73.541 13.3496 74.0078 13.2227 74.4375 12.9688C74.8711 12.7188 75.0879 12.3867 75.0879 11.9727C75.0879 11.4219 74.5039 11.1465 73.3359 11.1465C73.2969 11.1465 73.1738 11.1543 72.9668 11.1699C72.8457 11.1777 72.6777 11.1816 72.4629 11.1816ZM75.627 6.40625C75.4043 6.40625 75.2578 6.28906 75.1875 6.05469C75.1406 5.95703 75.0801 5.91016 75.0059 5.91406C74.8848 5.91406 74.7695 5.98633 74.6602 6.13086C75.0938 6.48242 75.3086 6.95703 75.3047 7.55469C75.3047 8.11328 75.0938 8.55859 74.6719 8.89062C74.2539 9.21875 73.75 9.38281 73.1602 9.38281C72.7461 9.38281 72.4121 9.32227 72.1582 9.20117C72.1074 9.32617 72.0801 9.52148 72.0762 9.78711C72.0762 10.002 72.1328 10.1602 72.2461 10.2617C72.3594 10.3633 72.4824 10.4141 72.6152 10.4141C72.623 10.4141 72.7676 10.4004 73.0488 10.373C73.3301 10.3418 73.5625 10.3262 73.7461 10.3262C74.6094 10.3262 75.2305 10.4707 75.6094 10.7598C75.9922 11.0488 76.1836 11.3496 76.1836 11.6621C76.1836 12.0879 76.0059 12.4688 75.6504 12.8047C75.2988 13.1445 74.8613 13.4043 74.3379 13.584C73.8145 13.7637 73.2695 13.8535 72.7031 13.8535C72.1445 13.8535 71.666 13.7344 71.2676 13.4961C70.873 13.2578 70.6758 12.8906 70.6758 12.3945C70.6758 11.8984 71 11.4297 71.6484 10.9883C71.2656 10.7578 71.0723 10.4668 71.0684 10.1152C71.0684 9.75977 71.2773 9.38867 71.6953 9.00195C71.4766 8.84961 71.2988 8.63477 71.1621 8.35742C71.0293 8.08008 70.9629 7.79297 70.9629 7.49609C70.9629 6.96094 71.1797 6.52344 71.6133 6.18359C72.0508 5.84375 72.5703 5.67383 73.1719 5.67383C73.6523 5.67383 74.0273 5.75 74.2969 5.90234C74.4648 5.75 74.666 5.62891 74.9004 5.53906C75.1387 5.44531 75.3418 5.39844 75.5098 5.39844C75.7168 5.39844 75.877 5.45312 75.9902 5.5625C76.1035 5.66797 76.1602 5.78906 76.1602 5.92578C76.1602 6.07031 76.1133 6.1875 76.0195 6.27734C75.9258 6.36328 75.7949 6.40625 75.627 6.40625ZM78.5684 10.3262C78.7441 10.5254 78.9434 10.627 79.166 10.6309C79.6309 10.6309 79.9844 10.4258 80.2266 10.0156C80.4727 9.60156 80.5957 9.04883 80.5957 8.35742C80.5957 7.77148 80.4844 7.2793 80.2617 6.88086C80.043 6.48242 79.7871 6.2832 79.4941 6.2832C79.2637 6.2832 78.9551 6.4082 78.5684 6.6582V10.3262ZM77.25 4.24414C77.25 3.87695 77.2227 3.63867 77.168 3.5293C77.1172 3.41992 77.0234 3.36523 76.8867 3.36523L76.5059 3.3418C76.459 3.3418 76.4336 3.32227 76.4297 3.2832L76.3945 2.9375C76.6914 2.91406 77.0664 2.87109 77.5195 2.80859C77.9766 2.74219 78.2734 2.67969 78.4102 2.62109C78.5391 2.62109 78.6035 2.66211 78.6035 2.74414C78.5801 3.06445 78.5684 3.48437 78.5684 4.00391V6.17773C79.0332 5.8418 79.4414 5.67383 79.793 5.67383C80.4023 5.67383 80.918 5.89648 81.3398 6.3418C81.7617 6.7832 81.9727 7.36328 81.9727 8.08203C81.9727 8.99219 81.6934 9.72656 81.1348 10.2852C80.5762 10.8398 79.9395 11.1172 79.2246 11.1172C78.7285 11.1172 78.3086 10.918 77.9648 10.5195L77.6074 11.1582L77.1973 11.082C77.2285 10.8242 77.2461 10.5 77.25 10.1094V4.24414Z" fill="#3D3F5A"/>
<path d="M705.52 10.0273V5.83789C705.52 5.64648 705.512 5.50391 705.496 5.41016C705.48 5.3125 705.457 5.25391 705.426 5.23438C705.398 5.21484 705.361 5.20508 705.314 5.20508C705.236 5.20508 705.061 5.25195 704.787 5.3457C704.514 5.43555 704.254 5.54492 704.008 5.67383L703.791 5.27539C704.135 5.10742 704.602 4.8457 705.191 4.49023C705.785 4.13477 706.127 3.93359 706.217 3.88672C706.447 3.75 706.613 3.68164 706.715 3.68164C706.82 3.68164 706.873 3.75 706.873 3.88672C706.85 4.39062 706.838 4.85352 706.838 5.27539V10.0273C706.838 10.082 706.842 10.1328 706.85 10.1797C706.857 10.2227 706.867 10.2617 706.879 10.2969C706.891 10.332 706.91 10.3652 706.938 10.3965C706.969 10.4238 706.992 10.4473 707.008 10.4668C707.023 10.4863 707.055 10.5039 707.102 10.5195C707.152 10.5352 707.188 10.5469 707.207 10.5547C707.227 10.5625 707.27 10.5703 707.336 10.5781C707.406 10.5859 707.453 10.5898 707.477 10.5898C707.5 10.5898 707.551 10.5938 707.629 10.6016C707.711 10.6094 707.768 10.6133 707.799 10.6133C707.838 10.6445 707.857 10.7129 707.857 10.8184C707.857 10.9238 707.838 10.9922 707.799 11.0234C707.287 11.0078 706.752 11 706.193 11C705.451 11 704.822 11.0078 704.307 11.0234C704.275 10.9922 704.26 10.9258 704.26 10.8242C704.26 10.7188 704.275 10.6484 704.307 10.6133C704.822 10.5781 705.15 10.5176 705.291 10.4316C705.443 10.3418 705.52 10.207 705.52 10.0273ZM717.531 10.0742C717.531 10.2344 717.578 10.3516 717.672 10.4258C717.766 10.4961 717.916 10.5508 718.123 10.5898L718.252 10.6133C718.314 10.6211 718.348 10.6582 718.352 10.7246V11L718.328 11.0234C717.656 11.0078 717.164 11 716.852 11L715.48 11.0234L715.457 11V10.7246C715.457 10.6621 715.49 10.625 715.557 10.6133L715.639 10.5898C715.783 10.5508 715.889 10.5156 715.955 10.4844C716.025 10.4531 716.086 10.4043 716.137 10.3379C716.188 10.2676 716.213 10.1797 716.213 10.0742V7.46094C716.213 6.99609 716.172 6.68945 716.09 6.54102C716.012 6.39258 715.854 6.31836 715.615 6.31836C715.486 6.31836 715.291 6.37109 715.029 6.47656C714.771 6.58203 714.514 6.72656 714.256 6.91016V10.0742C714.256 10.2266 714.297 10.3359 714.379 10.4023C714.465 10.4648 714.621 10.5273 714.848 10.5898L714.93 10.6133C714.992 10.6211 715.023 10.6582 715.023 10.7246V11L715 11.0234C714.359 11.0078 713.885 11 713.576 11L712.146 11.0234L712.123 11V10.7246C712.123 10.6621 712.154 10.625 712.217 10.6133L712.363 10.5898C712.562 10.5586 712.707 10.5059 712.797 10.4316C712.891 10.3535 712.938 10.2344 712.938 10.0742V4.24414C712.938 3.87695 712.91 3.63867 712.855 3.5293C712.805 3.41992 712.713 3.36523 712.58 3.36523L712.193 3.3418C712.146 3.3418 712.123 3.32227 712.123 3.2832L712.088 2.9375C712.385 2.91406 712.76 2.87109 713.213 2.80859C713.67 2.74219 713.967 2.67969 714.104 2.62109C714.232 2.62109 714.297 2.66211 714.297 2.74414C714.273 3.06445 714.26 3.48437 714.256 4.00391V6.42969C714.576 6.19141 714.908 6.00391 715.252 5.86719C715.596 5.73047 715.885 5.66211 716.119 5.66211C716.623 5.66211 716.984 5.82227 717.203 6.14258C717.422 6.45898 717.531 6.94141 717.531 7.58984V10.0742ZM721.516 6.16602C721.156 6.16602 720.877 6.375 720.678 6.79297C720.482 7.20703 720.385 7.69336 720.385 8.25195C720.385 8.58008 720.434 8.91602 720.531 9.25977C720.629 9.60352 720.791 9.91406 721.018 10.1914C721.244 10.4648 721.51 10.6016 721.814 10.6016C722.096 10.6016 722.344 10.4707 722.559 10.209C722.773 9.94336 722.881 9.4707 722.881 8.79102C722.881 7.95117 722.756 7.30469 722.506 6.85156C722.26 6.39453 721.93 6.16602 721.516 6.16602ZM718.926 8.51562C718.926 7.66797 719.164 6.98242 719.641 6.45898C720.121 5.93555 720.785 5.67383 721.633 5.67383C722.098 5.67383 722.512 5.75586 722.875 5.91992C723.242 6.08398 723.527 6.30273 723.73 6.57617C723.934 6.8457 724.084 7.13672 724.182 7.44922C724.283 7.76172 724.334 8.08203 724.334 8.41016C724.334 8.72266 724.277 9.03516 724.164 9.34766C724.055 9.65625 723.893 9.94531 723.678 10.2148C723.467 10.4805 723.184 10.6973 722.828 10.8652C722.473 11.0332 722.07 11.1172 721.621 11.1172C720.789 11.1172 720.131 10.8516 719.646 10.3203C719.166 9.78906 718.926 9.1875 718.926 8.51562ZM730.281 9.61719C730.281 9.82422 730.334 9.98438 730.439 10.0977C730.549 10.2109 730.752 10.2754 731.049 10.291L731.061 10.666C730.318 10.7637 729.756 10.9238 729.373 11.1465H728.963L728.998 10.5781C728.432 10.9375 727.916 11.1172 727.451 11.1172C726.818 11.1172 726.381 10.9668 726.139 10.666C725.9 10.3613 725.781 9.96094 725.781 9.46484V6.77539C725.781 6.58398 725.758 6.44336 725.711 6.35352C725.664 6.25977 725.572 6.20898 725.436 6.20117L725.061 6.17773L725.025 6.1543V5.79102L725.084 5.76758C725.717 5.7832 726.162 5.79102 726.42 5.79102L727.117 5.76758C727.109 6.12695 727.104 6.45508 727.1 6.75195V9.29492C727.1 9.74414 727.166 10.0605 727.299 10.2441C727.432 10.4277 727.582 10.5195 727.75 10.5195C728.215 10.5195 728.619 10.3711 728.963 10.0742V6.77539C728.963 6.39258 728.852 6.20117 728.629 6.20117L728.254 6.17773L728.207 6.1543V5.79102L728.254 5.76758C728.926 5.7832 729.369 5.79102 729.584 5.79102L730.305 5.76758C730.289 6.10352 730.281 6.43164 730.281 6.75195V9.61719ZM733.82 6.42969C734.309 5.92578 734.82 5.67383 735.355 5.67383C735.562 5.67383 735.73 5.74414 735.859 5.88477C735.988 6.02148 736.053 6.17383 736.053 6.3418C736.053 6.5332 735.996 6.69531 735.883 6.82812C735.773 6.96094 735.629 7.02734 735.449 7.02734C735.344 7.02734 735.242 7.00391 735.145 6.95703C735.051 6.90625 734.975 6.85156 734.916 6.79297C734.857 6.73047 734.797 6.67383 734.734 6.62305C734.672 6.57227 734.617 6.54688 734.57 6.54688C734.426 6.54688 734.279 6.59961 734.131 6.70508C733.924 6.84961 733.82 7.12891 733.82 7.54297V10.0742C733.82 10.1797 733.844 10.2676 733.891 10.3379C733.941 10.4043 734.004 10.4551 734.078 10.4902C734.152 10.5254 734.258 10.5586 734.395 10.5898L734.494 10.6133C734.557 10.6289 734.588 10.666 734.588 10.7246V11L734.564 11.0234C733.924 11.0078 733.447 11 733.135 11L731.746 11.0234L731.723 11V10.7246C731.723 10.6621 731.75 10.625 731.805 10.6133L731.922 10.5898C732.121 10.5508 732.268 10.4941 732.361 10.4199C732.455 10.3418 732.502 10.2266 732.502 10.0742V7.15039C732.502 6.86914 732.48 6.68555 732.438 6.59961C732.398 6.50977 732.332 6.46094 732.238 6.45312L731.746 6.40625L731.723 5.99609C732.699 5.86719 733.371 5.74805 733.738 5.63867C733.793 5.63867 733.82 5.65039 733.82 5.67383L733.797 6.42969H733.82ZM739.762 5.42188C739.762 5.00781 739.963 4.61523 740.365 4.24414C740.771 3.86914 741.307 3.68164 741.971 3.68164C742.26 3.68164 742.529 3.71094 742.779 3.76953C743.033 3.82812 743.275 3.92188 743.506 4.05078C743.74 4.17969 743.922 4.37305 744.051 4.63086C744.184 4.88477 744.25 5.1875 744.25 5.53906C744.25 5.94531 744.109 6.33984 743.828 6.72266C743.551 7.10156 743.1 7.5957 742.475 8.20508C742.436 8.24414 742.303 8.37109 742.076 8.58594C741.854 8.79688 741.68 8.9668 741.555 9.0957C741.434 9.2207 741.311 9.37695 741.186 9.56445C741.061 9.75195 740.998 9.91406 740.998 10.0508H742.943C743.166 10.0508 743.334 9.98438 743.447 9.85156C743.561 9.71484 743.674 9.44141 743.787 9.03125L744.303 9.14258C744.205 9.58398 744.117 10.2031 744.039 11H739.75C739.75 10.6328 739.844 10.2754 740.031 9.92773C740.223 9.58008 740.605 9.09766 741.18 8.48047L742.047 7.56641C742.344 7.24609 742.547 6.93945 742.656 6.64648C742.77 6.34961 742.826 5.99609 742.826 5.58594C742.826 5.09766 742.723 4.73828 742.516 4.50781C742.312 4.27734 742.104 4.16211 741.889 4.16211C741.592 4.16211 741.344 4.24023 741.145 4.39648C740.945 4.55273 740.846 4.70898 740.846 4.86523C740.846 5.00195 740.861 5.10742 740.893 5.18164C740.916 5.24414 740.928 5.32812 740.928 5.43359C740.928 5.60156 740.869 5.72852 740.752 5.81445C740.639 5.89648 740.506 5.9375 740.354 5.9375C740.193 5.9375 740.055 5.88867 739.938 5.79102C739.82 5.68945 739.762 5.56641 739.762 5.42188ZM747.842 4.16211C747.584 4.16211 747.34 4.23242 747.109 4.37305C746.879 4.50977 746.764 4.73828 746.764 5.05859C746.764 5.5 746.576 5.7207 746.201 5.7207C746.049 5.7207 745.93 5.68359 745.844 5.60938C745.762 5.53125 745.715 5.4668 745.703 5.41602C745.691 5.36133 745.686 5.31445 745.686 5.27539C745.686 5.1543 745.723 5.01172 745.797 4.84766C745.875 4.68359 745.994 4.50977 746.154 4.32617C746.318 4.14258 746.568 3.99023 746.904 3.86914C747.244 3.74414 747.633 3.68164 748.07 3.68164C748.688 3.68164 749.133 3.82031 749.406 4.09766C749.684 4.37109 749.822 4.67188 749.822 5C749.822 5.22266 749.721 5.5 749.518 5.83203C749.314 6.16406 748.98 6.43164 748.516 6.63477C748.949 6.68164 749.34 6.875 749.688 7.21484C750.035 7.55469 750.209 8 750.209 8.55078C750.209 9.35938 749.938 9.99219 749.395 10.4492C748.855 10.9062 748.189 11.1348 747.396 11.1348C746.963 11.1348 746.547 11.0566 746.148 10.9004C745.75 10.7441 745.551 10.5449 745.551 10.3027C745.551 10.1895 745.611 10.0879 745.732 9.99805C745.854 9.9043 746.002 9.85742 746.178 9.85742C746.451 9.85742 746.65 9.96289 746.775 10.1738C746.959 10.4863 747.219 10.6426 747.555 10.6426C747.812 10.6426 748.086 10.4902 748.375 10.1855C748.668 9.88086 748.814 9.39258 748.814 8.7207C748.814 7.7207 748.387 7.2207 747.531 7.2207C747.477 7.2207 747.268 7.25977 746.904 7.33789L746.834 6.85742C747.467 6.71289 747.916 6.48633 748.182 6.17773C748.451 5.86523 748.586 5.53711 748.586 5.19336C748.586 4.87305 748.51 4.62109 748.357 4.4375C748.205 4.25391 748.033 4.16211 747.842 4.16211ZM756.379 6.42969H756.402C756.969 5.92578 757.529 5.67383 758.084 5.67383C758.709 5.67383 759.121 5.9375 759.32 6.46484C759.93 5.9375 760.545 5.67383 761.166 5.67383C761.471 5.67383 761.719 5.72266 761.91 5.82031C762.102 5.91406 762.24 6.06055 762.326 6.25977C762.416 6.45898 762.475 6.66016 762.502 6.86328C762.533 7.0625 762.549 7.31836 762.549 7.63086V10.0859C762.549 10.2383 762.592 10.3477 762.678 10.4141C762.768 10.4766 762.92 10.5352 763.135 10.5898L763.229 10.6133C763.291 10.6289 763.324 10.666 763.328 10.7246V11L763.305 11.0234C762.656 11.0078 762.176 11 761.863 11L760.58 11.0234L760.557 11V10.7246C760.557 10.6621 760.588 10.625 760.65 10.6133C761.033 10.582 761.225 10.4062 761.225 10.0859V7.36133C761.225 6.67383 761.064 6.33008 760.744 6.33008C760.338 6.33008 759.902 6.52734 759.438 6.92188C759.453 7.12891 759.461 7.35938 759.461 7.61328V10.0859C759.461 10.2773 759.512 10.4082 759.613 10.4785C759.719 10.5449 759.865 10.5898 760.053 10.6133C760.115 10.6133 760.146 10.6504 760.146 10.7246V11L760.123 11.0234C759.549 11.0078 759.104 11 758.787 11L757.492 11.0234L757.469 11V10.7246C757.469 10.666 757.506 10.6289 757.58 10.6133C757.955 10.582 758.143 10.4062 758.143 10.0859V7.39062C758.143 6.6875 757.979 6.33398 757.65 6.33008C757.283 6.33008 756.867 6.52344 756.402 6.91016V10.0977C756.402 10.2266 756.434 10.332 756.496 10.4141C756.562 10.4922 756.629 10.541 756.695 10.5605C756.766 10.5801 756.859 10.5977 756.977 10.6133C757.047 10.6289 757.084 10.666 757.088 10.7246V11L757.064 11.0234C756.49 11.0078 756.041 11 755.717 11L754.328 11.0234L754.305 11V10.7246C754.305 10.6699 754.336 10.6328 754.398 10.6133L754.504 10.5898C754.719 10.543 754.869 10.4902 754.955 10.4316C755.041 10.3691 755.084 10.2578 755.084 10.0977V7.15039C755.084 6.86914 755.062 6.68555 755.02 6.59961C754.98 6.50977 754.914 6.46094 754.82 6.45312L754.328 6.40625L754.305 5.99609C755.281 5.86719 755.953 5.74805 756.32 5.63867C756.375 5.63867 756.402 5.65039 756.402 5.67383L756.379 6.42969ZM766.059 7.14453V10.0742C766.059 10.2344 766.104 10.3516 766.193 10.4258C766.287 10.4961 766.43 10.5508 766.621 10.5898L766.744 10.6133C766.807 10.6289 766.838 10.666 766.838 10.7246V11L766.814 11.0234C766.166 11.0078 765.686 11 765.373 11L763.973 11.0234L763.949 11V10.7246C763.949 10.6621 763.977 10.625 764.031 10.6133L764.178 10.5898C764.377 10.5586 764.52 10.5059 764.605 10.4316C764.695 10.3535 764.74 10.2344 764.74 10.0742V7.15039C764.74 6.86914 764.717 6.67773 764.67 6.57617C764.627 6.4707 764.562 6.41406 764.477 6.40625L763.984 6.35352L763.961 5.99609C765.031 5.85156 765.715 5.73242 766.012 5.63867C766.066 5.63867 766.094 5.65039 766.094 5.67383C766.09 5.74023 766.086 5.82617 766.082 5.93164C766.082 6.03711 766.078 6.2207 766.07 6.48242C766.062 6.74414 766.059 6.96484 766.059 7.14453ZM764.875 4.66016C764.738 4.51953 764.67 4.34961 764.67 4.15039C764.67 3.94727 764.738 3.77734 764.875 3.64062C765.016 3.5 765.186 3.42969 765.385 3.42969C765.588 3.42969 765.758 3.5 765.895 3.64062C766.035 3.77734 766.105 3.94727 766.105 4.15039C766.105 4.34961 766.035 4.51953 765.895 4.66016C765.758 4.79688 765.588 4.86523 765.385 4.86523C765.186 4.86523 765.016 4.79688 764.875 4.66016ZM769.457 6.42969C770.113 5.92578 770.717 5.67383 771.268 5.67383C771.861 5.67383 772.254 5.83789 772.445 6.16602C772.637 6.49414 772.732 6.97266 772.732 7.60156V10.0859C772.732 10.2383 772.775 10.3477 772.861 10.4141C772.951 10.4766 773.104 10.5352 773.318 10.5898L773.418 10.6133C773.48 10.6289 773.512 10.666 773.512 10.7246V11L773.488 11.0234C772.848 11.0078 772.371 11 772.059 11L770.717 11.0234L770.693 11V10.7246C770.693 10.6699 770.725 10.6328 770.787 10.6133L770.84 10.6016C771.047 10.5469 771.193 10.4883 771.279 10.4258C771.369 10.3594 771.414 10.2461 771.414 10.0859V7.51953C771.414 7.08594 771.381 6.78125 771.314 6.60547C771.252 6.42969 771.117 6.3418 770.91 6.3418C770.543 6.3418 770.059 6.53125 769.457 6.91016V10.0859C769.457 10.2383 769.502 10.3516 769.592 10.4258C769.686 10.4961 769.832 10.5547 770.031 10.6016L770.078 10.6133C770.141 10.6289 770.174 10.666 770.178 10.7246V11L770.154 11.0234C769.545 11.0078 769.084 11 768.771 11L767.383 11.0234L767.359 11V10.7246C767.359 10.6699 767.391 10.6328 767.453 10.6133L767.559 10.5898C767.773 10.543 767.924 10.4883 768.01 10.4258C768.096 10.3594 768.139 10.2461 768.139 10.0859V7.15039C768.139 6.86914 768.117 6.68555 768.074 6.59961C768.035 6.50977 767.969 6.46094 767.875 6.45312L767.383 6.40625L767.359 5.99609C768.336 5.86719 769.008 5.74805 769.375 5.63867C769.43 5.63867 769.457 5.65039 769.457 5.67383L769.434 6.42969H769.457ZM777.865 4.24414C777.865 3.87695 777.838 3.63867 777.783 3.5293C777.732 3.41992 777.639 3.36523 777.502 3.36523L777.121 3.3418C777.074 3.3418 777.049 3.32227 777.045 3.2832L777.01 2.9375C777.307 2.91406 777.682 2.87109 778.135 2.80859C778.592 2.74219 778.889 2.67969 779.025 2.62109C779.154 2.62109 779.219 2.66211 779.219 2.74414C779.195 3.06445 779.184 3.48437 779.184 4.00391V10.0742C779.184 10.2344 779.229 10.3516 779.318 10.4258C779.412 10.4961 779.562 10.5508 779.77 10.5898L779.904 10.6133C779.967 10.6211 779.998 10.6582 779.998 10.7246V11L779.975 11.0234C779.303 11.0078 778.811 11 778.498 11L777.068 11.0234L777.045 11V10.7246C777.045 10.6621 777.078 10.625 777.145 10.6133L777.285 10.5898C777.484 10.5586 777.631 10.5059 777.725 10.4316C777.818 10.3535 777.865 10.2344 777.865 10.0742V4.24414ZM782.037 7.57812H783.959C783.975 7.5625 783.982 7.51953 783.982 7.44922C783.982 7.01562 783.896 6.69531 783.725 6.48828C783.553 6.28125 783.367 6.17773 783.168 6.17773C783.09 6.17773 783.002 6.19531 782.904 6.23047C782.807 6.26562 782.697 6.32812 782.576 6.41797C782.459 6.50391 782.35 6.64648 782.248 6.8457C782.146 7.04492 782.076 7.28906 782.037 7.57812ZM784.955 9.69336L785.254 9.94531C784.871 10.7305 784.168 11.1211 783.145 11.1172C782.289 11.1172 781.65 10.8828 781.229 10.4141C780.811 9.94141 780.602 9.34375 780.602 8.62109C780.602 7.75 780.863 7.04102 781.387 6.49414C781.91 5.94727 782.508 5.67383 783.18 5.67383C783.98 5.67383 784.545 5.87891 784.873 6.28906C785.201 6.69531 785.365 7.20117 785.365 7.80664C785.365 7.97461 785.209 8.05859 784.896 8.05859H781.979V8.36914C781.979 8.96289 782.135 9.45898 782.447 9.85742C782.76 10.252 783.148 10.4492 783.613 10.4492C784.094 10.4492 784.541 10.1973 784.955 9.69336ZM791.424 3.85742V5.79102H792.467C792.705 5.79102 792.824 5.83203 792.824 5.91406V6.1543C792.824 6.29102 792.645 6.35742 792.285 6.35352H791.424V9.52344C791.424 10.1094 791.5 10.4023 791.652 10.4023C791.867 10.4023 792.139 10.2617 792.467 9.98047L792.742 10.2559C792.293 10.8496 791.758 11.1465 791.137 11.1465C790.449 11.1465 790.105 10.7383 790.105 9.92188V6.35352H788.184V10.0508C788.184 10.2812 788.223 10.4316 788.301 10.502C788.383 10.5684 788.539 10.6016 788.77 10.6016C788.832 10.6016 788.865 10.6387 788.869 10.7129V10.9883L788.84 11.0117C788.254 10.9961 787.807 10.9883 787.498 10.9883L786.045 11.0117L786.021 10.9883V10.7129C786.021 10.6426 786.055 10.6055 786.121 10.6016H786.285C786.668 10.6016 786.861 10.4297 786.865 10.0859V6.35352H786.309C786.094 6.35352 785.986 6.31445 785.986 6.23633V6.06641C785.986 6.00391 786.027 5.94336 786.109 5.88477C786.195 5.82227 786.33 5.79102 786.514 5.79102H786.865C786.865 4.86914 787.135 4.13867 787.674 3.59961C788.213 3.06055 788.799 2.79102 789.432 2.79102C789.729 2.79102 790.008 2.83789 790.27 2.93164C790.535 3.02148 790.748 3.13086 790.908 3.25977C791.068 3.38867 791.193 3.50781 791.283 3.61719C791.377 3.72266 791.424 3.80273 791.424 3.85742ZM790.357 4.40234C790.357 4.23438 790.205 4 789.9 3.69922C789.596 3.39844 789.363 3.24805 789.203 3.24805C789.09 3.24805 788.98 3.27539 788.875 3.33008C788.773 3.38086 788.666 3.47266 788.553 3.60547C788.443 3.73438 788.354 3.94531 788.283 4.23828C788.217 4.53125 788.184 4.88867 788.184 5.31055V5.79102H789.766C789.895 5.79102 790 5.75391 790.082 5.67969C790.168 5.60156 790.229 5.48633 790.264 5.33398C790.299 5.18164 790.322 5.04102 790.334 4.91211C790.35 4.7793 790.357 4.60938 790.357 4.40234Z" fill="#3D3F5A"/>
<rect y="21" width="793" height="10" rx="5" fill="#FBE9CC"/>
<rect y="21" width="505" height="10" rx="5" fill="#FDBF0F"/>
</svg>
